<mxfile host="app.diagrams.net" modified="2023-07-31T09:13:50.691Z" agent="Mozilla/5.0 (Windows NT 10.0; Win64; x64; rv:109.0) Gecko/20100101 Firefox/115.0" version="21.6.6" etag="u-90nyNwWdKkPNpDhXgP" type="github">
  <diagram name="Page-1" id="8Kj4Qg0IumMeyT64Z4s6">
    <mxGraphModel>
      <root>
        <mxCell id="0" />
        <mxCell id="1" parent="0" />
      </root>
    </mxGraphModel>
  </diagram>
</mxfile>
